<?xml version="1.0" standalone="no"?>
<!DOCTYPE svg PUBLIC "-//W3C//DTD SVG 20010904//EN"
 "http://www.w3.org/TR/2001/REC-SVG-20010904/DTD/svg10.dtd">
<svg fill="currentColor" version="1.0" xmlns="http://www.w3.org/2000/svg"
 width="3200.000000pt" height="952.526164pt" viewBox="0 0 3200.000000 952.526164"
 preserveAspectRatio="xMidYMid meet">
<metadata>
Created by potrace 1.16, written by Peter Selinger 2001-2019
</metadata>
<g transform="translate(0.000000,956.392906) scale(0.100000,-0.100000)"
fill="#000000" stroke="none">
<path d="M5772 9549 c-31 -10 -104 -18 -212 -23 -207 -8 -326 -22 -404 -47
-34 -11 -110 -27 -171 -35 -60 -9 -126 -22 -145 -29 -128 -47 -152 -55 -177
-55 -41 0 -103 -19 -132 -41 -14 -10 -64 -27 -111 -37 -51 -11 -100 -29 -123
-44 -20 -15 -56 -29 -80 -33 -52 -9 -118 -37 -135 -58 -8 -9 -40 -21 -72 -28
-37 -7 -69 -21 -91 -40 -18 -15 -54 -33 -79 -39 -25 -6 -61 -24 -80 -40 -19
-16 -55 -34 -80 -40 -25 -6 -61 -24 -80 -40 -18 -16 -54 -34 -79 -40 -25 -6
-59 -24 -76 -39 -16 -16 -46 -34 -65 -40 -19 -6 -51 -25 -70 -41 -19 -17 -51
-35 -70 -40 -20 -5 -48 -23 -63 -38 -16 -16 -46 -35 -68 -42 -22 -8 -48 -24
-58 -36 -9 -12 -37 -32 -61 -44 -25 -12 -56 -33 -70 -46 -14 -12 -42 -30 -62
-38 -21 -9 -42 -25 -48 -36 -6 -11 -27 -28 -48 -39 -20 -10 -46 -29 -57 -41
-11 -12 -37 -31 -58 -41 -21 -11 -47 -31 -59 -44 -11 -13 -33 -29 -49 -35 -15
-7 -40 -27 -54 -46 -14 -19 -31 -34 -38 -34 -11 0 -45 -30 -126 -111 -20 -20
-44 -40 -53 -45 -10 -5 -53 -43 -96 -84 -43 -41 -108 -100 -145 -130 -37 -30
-97 -91 -134 -135 -37 -44 -98 -112 -135 -150 -38 -39 -77 -82 -86 -96 -9 -13
-32 -40 -51 -59 -18 -19 -49 -51 -67 -70 -19 -20 -34 -41 -34 -47 0 -6 -13
-22 -29 -35 -16 -13 -40 -42 -55 -65 -14 -24 -30 -43 -34 -43 -5 0 -19 -19
-32 -42 -13 -24 -39 -62 -59 -85 -74 -86 -96 -117 -112 -152 -9 -20 -26 -45
-39 -56 -12 -11 -33 -41 -45 -66 -13 -25 -31 -51 -40 -59 -9 -7 -23 -29 -30
-48 -8 -18 -26 -48 -41 -65 -14 -17 -36 -54 -49 -81 -12 -28 -32 -59 -43 -70
-12 -10 -27 -35 -33 -55 -7 -20 -24 -52 -39 -71 -16 -19 -33 -52 -39 -72 -7
-20 -25 -53 -42 -74 -16 -21 -32 -49 -36 -63 -8 -35 -31 -80 -54 -104 -10 -11
-21 -34 -25 -51 -8 -38 -30 -83 -54 -109 -10 -10 -24 -41 -30 -68 -7 -26 -25
-68 -40 -91 -16 -24 -34 -66 -40 -93 -6 -27 -24 -69 -40 -93 -16 -24 -34 -69
-40 -100 -7 -32 -24 -79 -40 -107 -15 -27 -35 -83 -44 -123 -8 -40 -27 -92
-40 -115 -14 -23 -30 -73 -36 -112 -7 -38 -25 -99 -40 -135 -16 -36 -33 -101
-39 -144 -6 -44 -22 -115 -36 -157 -13 -43 -34 -151 -45 -241 -25 -199 -34
-235 -60 -243 -20 -6 -20 -17 -20 -625 0 -607 0 -619 20 -625 25 -8 36 -47 56
-200 10 -76 27 -146 45 -192 15 -39 33 -100 39 -135 6 -35 22 -82 36 -105 13
-23 32 -75 40 -115 9 -40 29 -95 44 -123 16 -27 34 -70 40 -95 7 -25 27 -70
46 -100 19 -31 34 -62 34 -70 0 -8 18 -44 40 -80 22 -36 40 -70 40 -77 0 -7
14 -28 30 -47 17 -18 39 -54 50 -78 10 -24 29 -53 41 -64 11 -10 28 -32 36
-48 9 -16 29 -44 47 -62 40 -43 96 -110 125 -152 31 -44 186 -200 229 -229 41
-27 100 -75 153 -125 22 -21 44 -38 49 -38 6 0 27 -15 47 -33 21 -18 54 -39
73 -47 19 -7 49 -25 65 -40 17 -15 45 -32 62 -38 18 -6 50 -24 70 -41 22 -17
60 -35 90 -41 29 -7 69 -23 90 -38 23 -15 72 -33 123 -44 47 -10 97 -27 111
-37 31 -23 81 -37 166 -45 34 -4 93 -18 130 -31 83 -28 198 -43 408 -51 97 -3
179 -12 207 -21 66 -20 441 -19 523 2 31 8 100 15 153 15 200 0 475 21 537 40
33 11 110 26 170 35 192 27 229 34 290 59 33 14 96 29 139 35 49 7 95 20 120
35 23 13 68 29 101 36 86 16 123 29 162 55 18 13 57 28 85 34 28 7 74 25 102
41 28 15 72 34 97 40 25 6 61 24 79 40 18 16 54 34 79 40 25 6 60 24 76 39 17
16 48 34 70 41 22 7 51 23 65 35 14 13 41 30 60 40 19 9 49 30 65 45 17 15 46
33 65 40 19 8 52 29 73 47 20 18 42 33 47 33 5 0 27 15 47 33 21 18 56 44 78
56 22 13 44 29 48 37 4 8 26 23 47 34 22 11 47 31 55 44 9 13 29 29 45 36 16
7 36 23 45 36 8 13 32 35 53 48 20 13 64 50 97 83 33 32 83 76 110 98 71 55
334 321 372 375 18 25 61 74 97 110 37 35 66 68 66 73 0 5 20 30 45 55 103
107 259 301 288 358 9 17 23 34 31 37 8 3 24 24 35 45 11 21 31 46 45 56 14 9
26 23 26 30 0 8 16 33 36 57 19 23 45 61 56 83 12 23 32 52 46 66 29 30 61 76
99 144 16 27 39 61 52 74 13 14 30 40 37 59 8 18 30 54 49 79 19 25 35 52 35
60 0 8 15 31 34 51 18 21 39 55 45 75 7 21 28 56 47 79 19 22 34 46 34 52 0 7
18 41 40 77 22 36 40 72 40 81 0 9 15 36 34 60 18 24 39 62 46 84 7 22 20 49
30 60 24 27 46 73 54 111 4 17 18 47 32 65 13 19 31 56 39 84 9 27 27 67 41
88 14 22 35 71 45 110 11 39 29 82 39 97 11 15 29 63 41 106 11 43 32 95 45
115 14 20 29 64 36 100 6 35 23 89 38 119 15 30 33 89 40 130 7 41 25 104 40
140 18 40 34 107 44 177 9 61 25 136 35 166 20 58 34 139 51 292 5 50 21 152
34 227 48 266 45 893 -4 1031 -11 32 -27 107 -36 165 -17 123 -18 127 -49 207
-13 33 -30 91 -39 128 -8 38 -24 80 -35 95 -10 15 -27 54 -36 87 -9 33 -28 76
-42 97 -13 20 -31 57 -38 82 -8 26 -30 73 -50 104 -19 32 -35 64 -35 73 0 8
-15 33 -33 55 -18 21 -39 55 -47 74 -7 19 -23 46 -35 60 -13 14 -32 43 -43 66
-11 22 -37 60 -56 83 -20 24 -36 48 -36 53 0 6 -17 28 -37 49 -21 21 -53 55
-71 76 -27 32 -249 255 -357 360 -17 17 -41 36 -55 43 -14 7 -42 28 -63 46
-20 19 -44 34 -52 34 -8 0 -32 15 -52 34 -21 18 -54 41 -73 51 -19 10 -49 30
-67 45 -17 16 -44 31 -60 34 -16 4 -44 20 -63 36 -19 16 -55 34 -80 40 -25 6
-62 24 -80 40 -20 17 -55 34 -85 40 -27 6 -69 24 -93 40 -24 16 -68 34 -98 40
-31 7 -84 25 -119 42 -37 17 -96 34 -137 40 -40 5 -100 21 -133 34 -64 27
-269 53 -416 54 -43 0 -96 7 -120 15 -65 23 -323 26 -387 4z m291 -597 c21 -6
55 -22 75 -35 20 -14 56 -30 80 -37 23 -6 57 -23 75 -38 17 -15 46 -34 62 -41
34 -14 50 -29 188 -167 53 -54 97 -103 97 -109 0 -6 16 -27 34 -47 20 -21 40
-56 46 -80 6 -24 24 -59 40 -79 17 -21 32 -58 40 -95 6 -32 24 -86 40 -119 20
-42 33 -95 45 -175 8 -63 27 -170 40 -236 24 -116 25 -136 25 -495 -1 -206 -5
-394 -11 -419 -5 -25 -14 -83 -19 -130 -5 -47 -14 -107 -19 -135 -5 -27 -15
-127 -21 -222 -8 -126 -18 -203 -40 -291 -16 -66 -34 -168 -40 -228 -11 -107
-24 -169 -53 -249 -8 -22 -20 -81 -26 -131 -6 -50 -22 -123 -36 -163 -13 -41
-33 -120 -44 -177 -11 -57 -29 -125 -41 -151 -11 -26 -28 -88 -36 -138 -9 -51
-28 -116 -44 -150 -17 -35 -34 -92 -40 -135 -6 -47 -21 -96 -40 -132 -16 -31
-34 -87 -41 -125 -6 -37 -24 -97 -39 -133 -16 -36 -36 -94 -45 -130 -9 -35
-27 -82 -40 -105 -13 -22 -28 -67 -34 -100 -6 -32 -22 -75 -36 -95 -14 -20
-34 -71 -45 -113 -11 -43 -28 -91 -39 -106 -11 -15 -29 -59 -40 -98 -10 -39
-30 -88 -44 -109 -14 -22 -32 -64 -41 -95 -8 -30 -27 -68 -40 -84 -15 -17 -31
-54 -37 -84 -6 -31 -23 -70 -39 -90 -16 -20 -34 -56 -40 -80 -6 -24 -24 -60
-40 -80 -16 -20 -34 -56 -40 -80 -6 -24 -24 -60 -40 -80 -15 -20 -34 -53 -41
-73 -7 -21 -25 -52 -41 -70 -15 -18 -30 -45 -33 -60 -4 -15 -21 -46 -39 -70
-18 -24 -38 -59 -45 -78 -6 -19 -24 -48 -40 -65 -15 -16 -34 -46 -41 -65 -8
-19 -29 -52 -47 -73 -18 -20 -33 -42 -33 -47 0 -5 -15 -27 -33 -47 -18 -21
-39 -52 -46 -70 -7 -17 -24 -42 -38 -55 -14 -12 -34 -40 -44 -60 -11 -21 -30
-45 -44 -54 -13 -9 -27 -25 -30 -35 -4 -11 -24 -41 -46 -67 -22 -26 -74 -89
-117 -140 -83 -101 -344 -371 -391 -406 -54 -39 -116 -87 -136 -103 -11 -10
-40 -28 -64 -41 -24 -12 -52 -33 -62 -46 -11 -14 -39 -29 -66 -35 -27 -7 -67
-25 -91 -41 -23 -15 -66 -34 -95 -40 -29 -7 -80 -25 -113 -41 -49 -24 -84 -32
-175 -40 -63 -6 -137 -17 -165 -25 -72 -20 -246 -18 -399 6 -174 27 -209 36
-253 64 -20 14 -58 30 -84 36 -27 7 -57 24 -74 41 -15 16 -33 29 -40 29 -14 0
-102 71 -187 150 -63 59 -125 141 -169 223 -15 28 -32 53 -36 56 -13 8 -38 61
-46 96 -4 17 -18 46 -32 66 -17 24 -32 72 -46 140 -11 57 -29 120 -39 140 -36
71 -44 200 -42 654 1 427 9 582 38 725 30 148 35 187 45 311 6 79 17 147 29
180 11 30 27 101 35 159 31 204 37 236 61 313 14 43 29 118 35 167 6 50 21
119 34 154 13 35 32 108 41 162 9 55 27 126 40 159 27 66 40 121 50 207 3 32
17 79 31 105 13 26 33 96 44 155 12 59 32 129 45 155 13 26 29 78 35 115 5 36
23 97 39 135 16 37 34 95 40 128 6 32 24 88 41 122 16 35 34 89 40 120 5 32
24 87 41 123 17 36 37 91 44 124 8 32 25 74 39 95 14 20 30 61 37 91 6 30 22
71 35 91 13 19 33 66 43 102 10 37 30 84 44 105 14 20 29 51 33 67 9 39 31 83
55 108 10 11 21 34 25 51 8 39 30 83 55 109 10 11 21 34 25 51 8 38 30 83 54
108 9 10 22 37 29 59 7 22 28 61 47 85 19 25 34 54 34 63 0 10 14 36 31 57 17
22 41 62 53 89 13 28 31 56 40 64 9 8 23 29 30 46 8 17 30 53 50 79 20 26 36
53 36 61 0 7 14 26 30 42 17 16 41 48 53 70 31 58 77 121 113 158 18 17 39 46
48 63 9 18 20 32 25 32 4 0 36 33 70 73 80 92 302 317 314 317 5 0 28 18 51
39 103 98 121 113 155 131 20 10 53 32 74 49 21 16 48 33 60 37 12 3 36 19 52
34 17 16 50 34 75 40 25 7 65 25 89 41 24 16 60 31 80 35 42 7 103 24 181 53
30 11 93 24 140 29 106 13 642 8 693 -6z"/>
<path d="M14450 9522 c-14 -5 -35 -23 -47 -42 -13 -18 -32 -40 -43 -47 -12 -8
-31 -30 -43 -48 -25 -37 -213 -266 -276 -335 -79 -88 -116 -131 -156 -181 -22
-27 -52 -64 -67 -80 -15 -16 -37 -44 -49 -62 -23 -33 -71 -91 -133 -162 -203
-230 -276 -316 -276 -325 0 -10 -25 -40 -200 -240 -175 -201 -200 -230 -200
-240 0 -9 -48 -67 -128 -156 -122 -135 -180 -203 -312 -368 -62 -78 -125 -153
-171 -206 -102 -116 -220 -256 -294 -349 -27 -35 -69 -83 -92 -107 -23 -24
-44 -52 -48 -63 -3 -10 -17 -26 -30 -35 -14 -9 -35 -32 -48 -50 -25 -38 -212
-266 -276 -336 -79 -88 -116 -131 -156 -181 -22 -27 -52 -64 -67 -80 -15 -16
-37 -44 -49 -62 -23 -33 -71 -91 -133 -162 -203 -230 -276 -316 -276 -325 0
-10 -25 -40 -200 -240 -175 -201 -200 -230 -200 -240 0 -9 -48 -67 -128 -156
-122 -135 -180 -203 -312 -368 -62 -78 -125 -153 -171 -206 -102 -116 -220
-256 -294 -349 -27 -35 -69 -83 -92 -107 -23 -24 -44 -52 -48 -63 -3 -10 -17
-26 -30 -35 -14 -9 -35 -32 -48 -50 -25 -38 -212 -266 -276 -336 -79 -88 -116
-131 -156 -181 -22 -27 -52 -64 -67 -80 -15 -16 -37 -44 -49 -62 -23 -33 -71
-91 -133 -162 -203 -230 -276 -316 -276 -325 0 -10 -25 -40 -200 -240 -175
-200 -200 -230 -200 -240 0 -9 -142 -174 -209 -242 -20 -20 -52 -56 -71 -79
-19 -22 -66 -73 -105 -112 -38 -39 -78 -83 -87 -97 -25 -35 -330 -340 -341
-340 -5 0 -31 -21 -58 -47 -107 -104 -129 -123 -141 -123 -7 0 -35 -17 -60
-39 -26 -21 -60 -42 -75 -46 -15 -3 -41 -19 -58 -35 -20 -19 -49 -32 -87 -40
-31 -6 -67 -19 -80 -29 -42 -33 -64 -40 -159 -52 -52 -6 -103 -17 -115 -24
-11 -7 -29 -35 -39 -62 -10 -26 -27 -61 -37 -78 -21 -36 -23 -94 -4 -121 14
-19 41 -19 1333 -22 1134 -2 1321 0 1338 12 28 20 35 177 11 224 -23 44 -42
52 -164 62 -142 13 -206 27 -228 51 -9 11 -42 27 -72 35 -42 12 -68 30 -113
74 -33 31 -59 61 -59 65 0 5 -16 32 -36 61 -28 40 -37 65 -41 110 -7 78 12
194 42 258 13 28 28 70 35 94 6 23 24 57 39 75 15 17 34 49 41 71 7 21 28 55
46 74 19 20 34 41 34 47 0 18 133 195 197 261 23 24 44 52 48 63 3 10 17 26
30 35 14 9 35 32 48 50 27 41 221 277 268 326 19 19 41 46 49 60 8 14 30 41
48 60 47 49 170 198 190 229 15 25 55 74 122 151 39 45 100 119 172 212 32 40
80 97 106 126 l49 52 1360 0 c1343 0 1360 0 1378 -20 17 -18 17 -42 11 -382
-5 -249 -12 -385 -22 -433 -8 -38 -14 -125 -14 -192 0 -71 -6 -146 -14 -180
-8 -32 -17 -140 -21 -243 -7 -205 -15 -269 -50 -380 -13 -42 -28 -109 -34
-149 -7 -51 -18 -85 -36 -111 -15 -21 -32 -58 -40 -83 -7 -24 -29 -66 -49 -92
-20 -25 -36 -54 -36 -62 0 -9 -15 -30 -34 -48 -18 -17 -41 -46 -50 -63 -9 -18
-21 -32 -27 -32 -5 0 -25 -15 -43 -34 -39 -38 -169 -90 -281 -111 -38 -7 -148
-16 -243 -20 l-172 -7 -49 -39 c-54 -43 -57 -50 -67 -159 -6 -75 -6 -76 20
-88 21 -9 461 -12 1939 -12 1654 0 1915 2 1933 14 28 20 69 162 60 210 -9 49
-47 76 -105 76 -82 0 -174 20 -226 49 -27 16 -68 34 -90 41 -75 24 -226 180
-246 253 -6 23 -21 60 -34 82 -56 97 -61 231 -46 1141 10 561 16 742 27 785 9
39 14 115 14 237 0 121 5 199 14 239 11 44 17 219 26 738 7 384 17 700 22 725
6 25 13 149 17 275 4 138 10 238 17 250 8 14 15 246 24 715 9 514 16 713 26
765 9 44 14 135 14 248 0 117 5 201 14 245 11 51 18 230 26 747 9 517 15 694
26 736 9 38 14 116 14 237 0 129 4 198 15 239 8 31 15 87 15 124 0 99 -8 104
-179 106 -75 1 -147 -1 -161 -5z m-1734 -2959 c14 -15 16 -32 10 -137 -3 -67
-8 -236 -12 -376 -4 -166 -11 -275 -20 -311 -8 -31 -14 -103 -14 -160 0 -57
-6 -135 -14 -174 -9 -47 -18 -219 -26 -520 -8 -317 -16 -467 -26 -506 -8 -31
-14 -103 -14 -160 0 -57 -7 -136 -15 -174 -8 -39 -15 -112 -15 -164 0 -74 -4
-98 -17 -113 -15 -17 -63 -18 -1112 -18 -603 0 -1101 4 -1107 8 -6 4 -14 17
-18 28 -5 18 8 37 69 100 42 44 83 92 92 108 17 33 203 246 215 246 4 0 16 17
27 38 11 20 29 43 40 50 11 6 32 29 45 50 13 20 47 62 76 92 28 30 61 69 73
85 21 30 65 83 135 161 20 23 56 63 80 90 24 27 59 67 78 89 36 40 130 154
227 273 29 35 71 85 94 110 24 26 58 64 75 85 18 21 47 52 65 70 18 18 42 47
55 64 31 43 225 276 277 333 23 25 58 65 79 89 20 24 53 61 72 82 19 20 58 65
85 99 96 118 204 245 238 281 19 19 40 46 47 59 7 13 27 39 44 57 17 18 41 44
53 58 26 29 36 31 59 8z"/>
<path d="M21055 9524 c-158 -9 -326 -29 -380 -46 -33 -10 -96 -23 -140 -29
-167 -21 -212 -30 -270 -53 -33 -14 -93 -29 -132 -34 -40 -6 -98 -22 -130 -37
-32 -14 -99 -35 -150 -45 -50 -10 -104 -27 -120 -39 -15 -11 -57 -27 -93 -36
-36 -9 -99 -32 -141 -51 -42 -19 -85 -34 -95 -34 -10 0 -43 -15 -74 -34 -30
-18 -71 -37 -90 -41 -40 -8 -84 -29 -118 -56 -13 -10 -47 -23 -75 -29 -32 -6
-66 -22 -87 -40 -18 -16 -55 -34 -80 -40 -25 -6 -61 -24 -79 -39 -18 -16 -52
-34 -75 -41 -22 -6 -54 -24 -71 -40 -16 -16 -49 -34 -71 -40 -23 -7 -57 -25
-75 -41 -19 -16 -49 -34 -68 -39 -19 -5 -52 -23 -73 -40 -21 -17 -53 -37 -71
-45 -18 -7 -41 -23 -52 -35 -11 -12 -35 -28 -55 -36 -19 -8 -52 -28 -73 -45
-20 -17 -53 -37 -72 -45 -19 -7 -39 -23 -45 -35 -7 -11 -26 -27 -44 -34 -18
-8 -52 -30 -75 -49 -24 -20 -47 -36 -52 -36 -8 0 -63 -44 -149 -120 -37 -33
-103 -86 -196 -160 -84 -66 -582 -560 -601 -595 -9 -16 -33 -50 -55 -75 -22
-25 -56 -64 -76 -88 -20 -23 -49 -56 -63 -72 -15 -16 -39 -50 -53 -75 -15 -25
-30 -45 -35 -45 -4 0 -20 -22 -34 -48 -14 -26 -36 -57 -48 -68 -11 -10 -29
-35 -39 -54 -10 -19 -28 -44 -39 -54 -12 -11 -31 -40 -41 -64 -11 -24 -33 -60
-50 -78 -16 -19 -30 -41 -30 -48 0 -8 -16 -37 -36 -66 -20 -29 -41 -66 -47
-84 -6 -17 -23 -47 -37 -66 -15 -19 -33 -51 -41 -70 -7 -19 -25 -51 -40 -70
-15 -19 -33 -55 -39 -79 -6 -24 -24 -60 -40 -80 -16 -20 -33 -59 -39 -90 -6
-29 -22 -67 -36 -83 -22 -26 -55 -112 -55 -143 0 -7 -13 -32 -30 -56 -16 -24
-34 -69 -41 -99 -6 -30 -24 -77 -39 -105 -16 -27 -33 -77 -39 -110 -6 -33 -23
-83 -36 -112 -14 -28 -34 -97 -45 -152 -10 -56 -28 -122 -39 -147 -21 -46 -31
-98 -51 -246 -5 -43 -18 -103 -29 -135 -27 -82 -30 -106 -46 -356 -7 -122 -18
-235 -24 -250 -17 -44 -15 -664 2 -713 8 -22 17 -97 21 -169 9 -185 25 -302
48 -360 11 -27 26 -93 34 -145 9 -57 24 -114 39 -143 13 -26 31 -84 40 -130 9
-49 25 -96 40 -117 13 -19 29 -57 36 -85 13 -55 32 -98 60 -133 10 -13 23 -47
29 -76 7 -36 20 -62 41 -82 16 -15 34 -45 39 -66 6 -20 21 -50 34 -65 13 -15
31 -44 41 -63 9 -19 30 -48 45 -65 15 -16 33 -46 40 -65 7 -19 28 -51 47 -70
18 -20 33 -41 33 -47 0 -6 13 -22 29 -36 17 -14 39 -40 50 -58 26 -43 307
-326 431 -435 52 -46 109 -96 125 -112 17 -16 44 -36 60 -45 17 -8 41 -25 55
-37 14 -13 44 -31 67 -42 23 -10 48 -27 56 -38 7 -11 31 -27 52 -36 21 -8 54
-28 74 -44 20 -16 54 -33 76 -39 22 -6 65 -27 95 -46 30 -19 61 -35 70 -35 9
0 38 -14 65 -31 28 -18 81 -40 118 -51 38 -10 90 -29 116 -42 26 -13 72 -29
104 -35 31 -6 85 -21 119 -34 92 -36 91 -36 186 -47 48 -6 114 -19 147 -30
131 -42 247 -51 733 -57 529 -7 858 6 948 37 29 10 99 26 156 34 209 33 232
37 277 60 25 13 80 29 121 36 44 7 96 24 125 40 28 15 75 33 105 39 30 7 71
23 92 37 20 14 61 32 91 40 30 8 79 30 107 49 29 19 60 35 70 35 10 0 37 15
59 34 23 19 58 40 79 46 20 7 48 24 62 37 22 22 62 49 165 110 16 10 46 35 67
56 22 20 43 37 48 37 5 0 27 17 49 38 22 20 86 75 142 122 139 116 266 238
352 340 110 130 225 261 263 300 19 20 34 41 34 47 0 7 16 24 35 39 19 14 35
32 35 39 0 11 61 94 128 175 16 19 37 49 46 67 9 18 25 37 36 43 11 6 27 27
36 48 8 20 28 51 43 67 16 17 36 44 44 60 8 17 27 41 41 54 14 14 26 33 26 42
0 34 -35 41 -186 37 l-143 -3 -51 -50 c-28 -27 -69 -73 -91 -102 -51 -68 -357
-381 -389 -398 -14 -8 -56 -44 -95 -80 -38 -37 -87 -78 -108 -91 -21 -14 -41
-32 -44 -40 -3 -8 -22 -23 -43 -34 -20 -10 -44 -30 -54 -44 -9 -14 -23 -26
-30 -26 -8 0 -37 -18 -66 -41 -28 -22 -67 -47 -86 -55 -19 -8 -38 -22 -41 -31
-3 -8 -29 -26 -57 -38 -28 -13 -64 -35 -81 -49 -16 -14 -45 -30 -63 -35 -18
-6 -55 -24 -81 -40 -26 -17 -69 -37 -95 -45 -27 -8 -64 -26 -84 -40 -21 -14
-69 -32 -109 -40 -40 -8 -85 -24 -100 -36 -17 -12 -69 -29 -123 -40 -52 -10
-121 -28 -152 -39 -67 -23 -157 -37 -328 -51 -69 -6 -143 -15 -165 -20 -53
-13 -389 -12 -440 1 -22 5 -112 16 -201 23 -136 12 -173 19 -237 44 -41 17
-100 35 -131 41 -59 11 -86 22 -124 52 -12 9 -42 20 -65 24 -52 9 -76 21 -99
51 -10 12 -38 27 -66 34 -33 7 -59 22 -81 46 -18 19 -37 34 -43 34 -10 0 -34
19 -144 115 -22 20 -54 44 -71 55 -17 10 -45 39 -62 64 -17 25 -43 58 -57 73
-67 74 -104 121 -104 131 0 5 -15 29 -34 51 -19 23 -40 58 -47 79 -6 20 -26
53 -44 73 -22 24 -35 51 -39 81 -4 25 -18 60 -32 79 -14 19 -32 59 -40 89 -8
30 -28 89 -44 130 -15 41 -36 118 -44 170 -9 52 -28 139 -42 195 -23 88 -27
129 -32 340 -8 292 3 881 18 950 30 143 42 212 55 335 14 142 25 198 49 266 8
23 19 77 26 120 26 181 32 209 55 254 14 27 28 82 35 131 7 52 22 108 40 147
16 34 34 88 40 119 5 32 23 86 40 120 16 35 34 88 39 119 6 31 26 90 45 133
19 42 38 96 42 119 4 24 20 62 35 85 16 23 34 68 40 99 6 32 22 72 36 90 13
18 31 58 39 88 9 30 29 75 44 100 15 25 35 70 44 101 8 30 27 68 40 84 14 16
28 43 32 60 8 38 31 82 55 108 10 11 21 34 25 51 8 39 30 83 55 109 10 11 24
36 30 56 7 20 22 50 35 66 12 17 32 53 44 80 12 28 32 61 44 75 13 14 29 41
36 60 7 19 23 46 35 60 13 14 31 41 40 60 10 19 29 48 42 64 13 16 35 51 49
77 13 27 28 49 33 49 5 0 23 25 40 55 17 30 35 55 39 55 5 0 19 19 32 43 27
49 113 153 205 249 25 25 45 50 45 55 0 12 320 332 346 346 10 5 36 26 56 46
36 35 59 56 158 139 25 22 64 49 88 62 23 13 42 27 42 31 0 4 21 17 46 29 25
12 57 35 72 50 15 15 43 33 62 40 19 7 46 23 60 36 14 12 45 31 70 42 25 11
67 33 94 51 28 17 57 31 65 31 9 0 41 15 71 34 31 19 69 38 85 41 17 4 64 23
106 41 42 19 110 40 151 48 41 8 92 22 114 31 79 33 178 46 404 52 277 7 515
-8 598 -37 81 -30 141 -47 183 -54 20 -4 56 -19 80 -35 24 -16 65 -35 90 -41
25 -6 60 -24 78 -40 18 -15 52 -33 75 -40 39 -12 87 -47 160 -116 18 -18 46
-39 62 -47 36 -19 167 -151 194 -195 11 -18 27 -35 35 -38 8 -3 24 -22 36 -42
11 -20 29 -42 39 -49 9 -7 27 -34 38 -61 12 -27 29 -55 38 -63 10 -8 28 -39
41 -69 14 -30 33 -67 44 -82 11 -15 29 -60 40 -100 11 -39 28 -83 38 -97 24
-35 30 -53 46 -139 8 -41 25 -102 39 -135 13 -34 27 -89 31 -122 12 -109 45
-296 55 -315 9 -17 29 -250 30 -342 0 -59 17 -68 127 -68 159 0 173 13 194
190 6 52 17 111 24 130 7 19 20 54 29 77 8 23 20 84 27 135 6 51 22 120 35
153 14 33 32 110 40 170 9 61 27 137 40 171 13 33 31 108 39 165 18 117 28
161 54 234 10 28 22 70 25 95 17 118 31 180 52 237 13 35 28 104 34 154 6 51
21 119 34 153 35 91 35 91 46 187 6 49 21 117 34 152 13 34 29 96 36 137 22
136 30 173 50 218 48 108 14 136 -155 130 l-101 -3 -54 -47 c-122 -105 -152
-128 -164 -128 -7 0 -25 -13 -39 -30 -15 -16 -39 -32 -54 -36 -16 -3 -56 -22
-90 -41 -48 -26 -82 -36 -144 -43 -138 -16 -322 3 -434 46 -33 12 -83 25 -110
29 -101 13 -158 27 -203 50 -28 14 -82 29 -132 35 -47 6 -112 22 -145 35 -83
32 -86 33 -216 50 -63 8 -141 24 -172 34 -107 37 -190 43 -657 46 -250 1 -482
1 -515 -1z"/>
<path d="M24805 9336 c-58 -26 -86 -84 -86 -180 0 -100 2 -101 211 -111 184
-9 264 -21 318 -49 26 -13 70 -27 97 -31 52 -8 115 -32 115 -45 0 -4 23 -19
50 -34 52 -28 55 -31 121 -133 35 -54 41 -73 50 -150 11 -92 4 -286 -12 -388
-6 -33 -21 -94 -34 -135 -13 -42 -28 -111 -34 -153 -6 -42 -22 -105 -37 -138
-14 -34 -34 -101 -44 -149 -10 -48 -30 -115 -44 -148 -14 -34 -31 -94 -36
-134 -6 -41 -23 -98 -40 -133 -16 -34 -34 -93 -40 -135 -6 -41 -25 -104 -41
-139 -17 -37 -34 -98 -40 -140 -6 -45 -22 -97 -39 -131 -17 -34 -33 -86 -39
-131 -6 -42 -23 -103 -40 -140 -16 -35 -35 -98 -41 -139 -6 -41 -22 -96 -35
-121 -13 -26 -31 -86 -40 -135 -10 -49 -28 -115 -42 -148 -13 -32 -33 -98 -43
-146 -10 -48 -30 -114 -43 -146 -14 -33 -32 -98 -41 -146 -9 -48 -28 -109 -41
-135 -14 -26 -30 -82 -36 -123 -6 -41 -24 -104 -40 -139 -17 -37 -34 -98 -40
-140 -6 -44 -22 -97 -39 -130 -15 -31 -33 -90 -40 -131 -7 -41 -25 -104 -40
-140 -15 -36 -33 -99 -39 -140 -7 -42 -25 -102 -41 -135 -17 -35 -34 -92 -40
-133 -5 -40 -22 -100 -36 -134 -14 -33 -34 -101 -45 -151 -10 -50 -28 -105
-39 -124 -10 -18 -29 -82 -40 -143 -11 -60 -32 -131 -45 -157 -13 -26 -29 -78
-35 -115 -5 -36 -24 -98 -40 -136 -16 -39 -35 -103 -40 -143 -6 -43 -20 -90
-34 -114 -15 -24 -33 -84 -45 -147 -11 -58 -29 -125 -41 -148 -12 -23 -28 -75
-36 -117 -8 -41 -28 -109 -44 -150 -17 -42 -35 -106 -40 -143 -5 -37 -23 -101
-40 -143 -16 -41 -36 -109 -44 -150 -8 -41 -26 -97 -40 -124 -13 -27 -27 -67
-31 -89 -10 -60 -26 -106 -46 -135 -10 -14 -27 -57 -37 -95 -11 -38 -33 -91
-51 -119 -17 -27 -31 -56 -31 -64 0 -9 -18 -45 -40 -81 -22 -36 -40 -71 -40
-77 0 -7 -15 -30 -33 -50 -18 -21 -39 -52 -46 -69 -7 -18 -26 -45 -43 -60 -16
-16 -36 -41 -44 -56 -8 -15 -29 -35 -47 -44 -17 -9 -45 -29 -62 -45 -16 -15
-46 -35 -65 -43 -19 -8 -48 -25 -64 -39 -18 -15 -52 -29 -90 -37 -33 -6 -88
-24 -121 -40 -66 -31 -97 -36 -295 -50 -170 -12 -243 -25 -300 -53 -55 -27
-67 -50 -76 -147 -6 -75 -6 -76 20 -88 21 -9 874 -12 3859 -12 3353 0 3835 2
3854 15 11 8 26 35 32 62 7 26 25 67 41 91 16 24 31 62 35 85 4 23 22 76 40
117 19 41 41 104 50 140 9 36 27 81 40 100 13 19 29 60 36 90 6 30 24 78 39
105 15 28 33 75 40 105 7 30 25 78 40 105 15 28 33 77 40 110 6 33 23 77 37
99 14 21 34 70 44 108 11 38 31 92 44 119 14 27 32 76 39 110 8 34 26 77 40
98 13 20 29 63 35 96 6 32 23 76 37 96 14 20 34 72 45 114 10 42 28 89 39 105
11 16 29 63 40 106 10 43 28 90 39 104 22 31 51 121 51 162 0 52 -29 68 -125
68 -97 0 -184 -30 -205 -72 -13 -24 -46 -62 -116 -132 -23 -22 -46 -49 -51
-59 -14 -27 -231 -245 -343 -345 -52 -47 -108 -98 -125 -113 -16 -16 -50 -46
-75 -68 -25 -21 -65 -56 -90 -78 -25 -22 -63 -50 -85 -62 -22 -13 -44 -29 -48
-37 -4 -8 -27 -24 -50 -36 -23 -11 -48 -29 -55 -40 -7 -10 -32 -28 -55 -39
-23 -12 -53 -32 -67 -45 -14 -12 -42 -30 -62 -38 -20 -9 -43 -25 -50 -35 -8
-11 -34 -29 -59 -39 -24 -11 -58 -30 -74 -44 -17 -14 -46 -30 -66 -37 -20 -6
-45 -20 -56 -30 -26 -25 -70 -47 -109 -55 -17 -4 -40 -15 -51 -25 -26 -24 -55
-40 -106 -55 -23 -7 -59 -25 -80 -39 -21 -14 -62 -31 -92 -37 -29 -6 -73 -24
-97 -40 -24 -16 -59 -32 -78 -36 -57 -9 -103 -26 -130 -46 -14 -10 -73 -28
-130 -40 -58 -11 -125 -31 -150 -44 -26 -13 -80 -28 -127 -34 -45 -6 -113 -22
-151 -35 -84 -29 -161 -42 -307 -50 -60 -4 -127 -13 -148 -21 -20 -8 -56 -14
-80 -14 -23 0 -74 -7 -112 -15 -54 -11 -147 -15 -397 -15 -327 0 -361 3 -508
41 -41 10 -104 23 -138 29 -35 5 -78 18 -95 30 -18 11 -45 26 -62 34 -16 8
-51 36 -78 63 -40 42 -49 58 -61 114 -12 57 -11 86 4 235 20 189 25 213 51
265 10 20 26 79 35 130 9 52 29 123 44 159 16 36 33 99 39 140 7 41 23 96 36
122 13 25 32 88 41 140 9 51 29 122 44 158 16 36 33 99 39 140 7 41 23 96 36
122 13 25 32 88 41 140 9 51 29 122 44 158 16 36 33 99 39 140 7 41 23 96 36
122 13 25 32 88 41 140 9 51 29 122 44 158 16 36 33 99 39 140 7 41 23 96 36
122 13 25 32 88 41 140 9 51 29 122 44 158 16 36 33 99 39 140 7 41 23 96 36
121 13 25 33 93 44 151 19 105 62 210 96 238 13 11 115 12 623 3 l607 -11 81
-26 c44 -14 116 -33 160 -42 44 -9 105 -31 139 -49 33 -18 71 -36 85 -40 14
-4 37 -18 51 -32 15 -13 40 -32 57 -41 90 -51 223 -186 267 -273 9 -19 28 -45
40 -59 16 -18 29 -56 44 -130 12 -58 31 -131 42 -163 22 -65 26 -198 8 -244
-6 -15 -15 -62 -19 -103 -5 -41 -16 -118 -25 -169 -17 -101 -13 -143 15 -171
14 -14 30 -16 96 -12 67 4 83 8 106 29 35 34 65 105 88 212 10 49 30 116 44
149 14 34 30 92 36 130 5 38 23 103 40 145 16 41 37 110 45 152 8 43 23 93 34
111 11 19 30 83 41 144 11 60 32 131 45 157 13 26 31 88 39 136 8 48 24 103
35 122 11 19 30 84 41 145 11 60 32 131 45 157 14 26 30 82 36 123 6 41 24
104 40 139 17 37 34 98 40 140 6 45 22 97 39 131 17 34 33 86 39 131 6 41 24
107 41 147 16 39 35 106 41 148 6 48 22 100 39 134 17 34 33 86 39 131 6 41
24 107 41 146 16 40 34 103 40 141 5 39 21 92 35 118 28 53 31 82 12 108 -21
28 -151 35 -213 11 -41 -15 -49 -24 -71 -74 -13 -31 -35 -67 -48 -81 -12 -14
-28 -43 -35 -65 -7 -22 -25 -53 -40 -70 -15 -16 -33 -47 -39 -67 -7 -20 -19
-42 -28 -49 -8 -8 -29 -37 -45 -66 -17 -29 -38 -59 -48 -66 -9 -6 -24 -25 -33
-42 -8 -16 -27 -41 -42 -55 -15 -14 -35 -41 -45 -60 -22 -41 -187 -206 -245
-246 -22 -14 -44 -33 -48 -40 -4 -8 -26 -23 -47 -34 -21 -11 -45 -29 -53 -40
-7 -10 -31 -28 -53 -38 -21 -10 -61 -32 -88 -50 -28 -18 -57 -32 -65 -32 -9 0
-40 -15 -71 -34 -35 -22 -79 -39 -120 -46 -36 -6 -83 -22 -105 -35 -41 -23
-105 -39 -208 -50 -32 -4 -83 -15 -112 -25 -88 -30 -246 -48 -485 -55 -134 -4
-248 -12 -281 -20 -46 -11 -369 -21 -530 -16 -19 1 -39 41 -39 79 0 15 13 52
29 82 19 35 33 83 40 131 6 41 24 107 41 147 16 39 35 106 41 148 6 48 22 100
39 134 17 34 33 86 39 131 6 41 24 107 40 145 17 39 35 102 41 140 6 38 22 90
35 116 13 25 32 88 41 140 9 51 29 122 44 158 16 36 33 99 39 140 7 41 23 96
36 122 13 25 32 88 41 140 9 51 29 122 44 158 16 36 33 99 39 140 7 41 23 96
36 122 13 25 32 88 41 140 9 51 29 122 44 158 16 36 33 99 39 140 7 41 23 96
36 121 13 26 31 86 40 134 9 48 29 120 45 159 16 39 34 100 40 136 25 139 -23
130 657 130 312 0 680 -5 818 -10 221 -10 262 -14 365 -40 63 -15 142 -31 175
-35 104 -11 169 -27 210 -50 22 -13 66 -28 99 -34 52 -10 79 -21 96 -42 9 -11
64 -36 95 -43 17 -4 44 -20 60 -35 17 -15 46 -34 65 -41 19 -8 55 -31 80 -52
25 -21 62 -52 84 -70 123 -104 297 -305 316 -365 7 -21 25 -52 41 -68 20 -21
32 -50 42 -95 8 -36 22 -80 32 -99 28 -56 35 -87 51 -255 8 -88 18 -164 21
-169 3 -5 9 -54 13 -109 11 -135 17 -142 146 -146 62 -3 99 0 109 8 7 6 21 43
30 82 9 39 23 87 31 107 25 56 33 88 44 174 6 44 22 101 35 126 22 45 37 106
50 206 4 28 18 77 31 111 13 33 28 85 34 115 5 30 14 83 20 119 7 35 22 85 35
110 13 25 26 68 30 95 12 96 27 160 45 195 10 20 23 64 29 98 6 34 16 89 21
122 6 33 20 80 31 106 12 25 27 89 35 141 15 102 33 146 64 163 18 10 20 21
20 115 l0 105 -3582 0 c-2951 -1 -3588 -3 -3613 -14z"/>
</g>
</svg>
